HIERARCHY
ROOT HipCenter
{
    OFFSET 0.0 0.0 -0.0
    CHANNELS 6 Xposition Yposition Zposition Zrotation Xrotation Yrotation
    JOINT Spine
    {
        OFFSET 0.0 26.441442489624023 0.0
        CHANNELS 3 Zrotation Xrotation Yrotation
        JOINT ShoulderCenter
        {
            OFFSET 0.0 19.745180130004883 0.0
            CHANNELS 3 Zrotation Xrotation Yrotation
            JOINT LeftShoulder
            {
                OFFSET 13.321146011352539 0.0 0.0
                CHANNELS 3 Zrotation Xrotation Yrotation
                JOINT LeftElbow
                {
                    OFFSET 21.55130958557129 0.0 0.0
                    CHANNELS 3 Zrotation Xrotation Yrotation
                    JOINT LeftWrist
                    {
                        OFFSET 20.703102111816406 0.0 0.0
                        CHANNELS 3 Zrotation Xrotation Yrotation
                        JOINT LeftHand
                        {
                            OFFSET 6.6316704750061035 0.0 0.0
                            CHANNELS 3 Zrotation Xrotation Yrotation
                            End Site
                            {
                                OFFSET 2.6526684761047363 0.0 0.0
                            }
                        }
                    }
                }
            }
            JOINT RightShoulder
            {
                OFFSET -13.321146011352539 0.0 0.0
                CHANNELS 3 Zrotation Xrotation Yrotation
                JOINT RightElbow
                {
                    OFFSET -21.55130958557129 0.0 0.0
                    CHANNELS 3 Zrotation Xrotation Yrotation
                    JOINT RightWrist
                    {
                        OFFSET -20.703102111816406 0.0 0.0
                        CHANNELS 3 Zrotation Xrotation Yrotation
                        JOINT RightHand
                        {
                            OFFSET -6.6316704750061035 0.0 0.0
                            CHANNELS 3 Zrotation Xrotation Yrotation
                            End Site
                            {
                                OFFSET -2.6526684761047363 0.0 0.0
                            }
                        }
                    }
                }
            }
            End Site
            {
                OFFSET 0.0 7.898072719573975 0.0
            }
        }
    }
    JOINT LeftHip
    {
        OFFSET 6.540960311889648 0.0 0.0
        CHANNELS 3 Zrotation Xrotation Yrotation
        JOINT LeftKnee
        {
            OFFSET 0.0 -29.80474853515625 0.0
            CHANNELS 3 Zrotation Xrotation Yrotation
            JOINT LeftAnkle
            {
                OFFSET 0.0 -35.112815856933594 0.0
                CHANNELS 3 Zrotation Xrotation Yrotation
                JOINT LeftFoot
                {
                    OFFSET 0.0 -10.248434066772461 0.0
                    CHANNELS 3 Zrotation Xrotation Yrotation
                    End Site
                    {
                        OFFSET 0.0 0.0 4.099373817443848
                    }
                }
            }
        }
    }
    JOINT RightHip
    {
        OFFSET -6.540960311889648 0.0 0.0
        CHANNELS 3 Zrotation Xrotation Yrotation
        JOINT RightKnee
        {
            OFFSET 0.0 -29.80474853515625 0.0
            CHANNELS 3 Zrotation Xrotation Yrotation
            JOINT RightAnkle
            {
                OFFSET 0.0 -35.112815856933594 0.0
                CHANNELS 3 Zrotation Xrotation Yrotation
                JOINT RightFoot
                {
                    OFFSET 0.0 -10.248434066772461 0.0
                    CHANNELS 3 Zrotation Xrotation Yrotation
                    End Site
                    {
                        OFFSET 0.0 0.0 4.099373817443848
                    }
                }
            }
        }
    }
}
MOTION
Frames: 7
Frame Time: 0.03333333333333333
36.93284225463867 18.148860931396484 -379.97930908203125 -1.2014310882558763 17.391086345446165 168.02640494204206 0.12581468640623844 -1.5327734539281068 0.10661727062319924 -5.297842352974427e-07 1.6253489997434214e-06 -8.474975103217295 -120.9291348867852 -38.23940389060967 -76.93584883278136 6.042617063910111e-06 -6.1544813812225336e-06 72.21821560423761 -1.1476263178599223e-06 54.470952141225965 82.91648850322701 -3.1805546814635168e-15 6.3611093629270335e-15 1.7655625192200634e-31 104.10479803173149 -56.681386044283606 77.21403464433374 4.4705511573794685e-07 -2.159594904537909e-06 -104.09713591859456 -2.284885622801141e-06 55.785872037867705 -55.89400853594102 0.0 0.0 6.361109362927033e-15 0.14200270286684963 -4.266153859524359 28.930136997701847 -7.972789917049941 -4.046571218759991 -0.9613481607902551 89.66056841971937 57.533839641354305 -73.90578664104429 -1.801486050047695e-16 0.0 0.0 -11.13583301019908 5.1242414049308564 -26.445725843316723 10.964270771433759 -8.584014160022946 1.2650792222150502 -77.94178828659854 69.33933174320674 68.34601166764797 2.2069531490250793e-32 -6.3611093629270335e-15 3.975693351829396e-16
36.7735595703125 18.121850967407227 -380.0492858886719 -1.5500867453193234 17.45812092482371 166.7590593328874 0.09121979781467437 -1.5102771887557846 0.10993475292265853 3.9697252226029627e-07 -1.2372295482373046e-06 -8.152846144972607 -121.62637613202158 -38.74564543258743 -77.95648279481088 -1.3616255453707428e-06 1.447524397911323e-07 72.49523408481157 -5.189389995625426e-06 54.10875587251067 82.91501466469586 -3.1805546814635168e-15 0.0 0.0 105.07830643964641 -57.58864890604744 79.0469004630943 1.2615456745643162e-06 4.909641296721374e-07 -104.91701099376921 7.052024473255858e-07 67.22330568893548 -53.01096778407453 -8.74652537402467e-15 -1.5902773407317584e-15 -1.2138242319637935e-31 -0.33940723067989886 -4.197919015806085 29.080023178542156 -7.594546772350566 -4.051381953318542 -0.9516949444867747 89.05415057165509 57.9728078006517 -73.44655887392274 -2.8326815131784443e-15 0.0 0.0 -11.782866145044819 5.094530631829489 -26.071661057458734 11.500934601939079 -8.84228120130971 1.3172243767666083 -79.09927302813468 69.16951626520694 69.45282074775562 3.1805546814635168e-15 -1.1034765745125397e-31 -3.975693351829396e-15
36.71649169921875 18.12653923034668 -380.04669189453125 -1.6823474186188103 17.448520520159846 165.00525718495933 0.18814430142058347 -1.512421356453324 0.11776291034976667 2.719426408641485e-07 6.938416925081915e-07 -7.17214501631686 -122.13443382843606 -39.11431068772412 -78.78059821268674 -3.879251112851089e-06 2.5325964676595857e-07 72.73283068416214 -3.263630003882805e-06 53.81674939010132 82.91442090283151 -8.74652537402467e-15 4.855296927855174e-31 -6.361109362927032e-15 105.6810292579352 -60.343570181507836 80.1759150956718 1.7722226267283256e-06 -1.059076409556877e-06 -103.48390923071081 3.5136959691675258e-06 55.8694848604569 -56.70226826619203 1.5902773407317588e-15 -4.4139062980501586e-32 -3.1805546814635176e-15 -0.4965965219391019 -4.093236464457331 29.515930656216575 -7.048806235790967 -4.310469391769059 -0.9714080750283687 88.46091904505393 58.78781889117392 -73.50085725290431 4.572047354603805e-15 6.3611093629270335e-15 1.5902773407317582e-15 -12.070482847508973 4.800250668029727 -25.96202378374259 11.700122682267109 -9.054047288340772 1.380596003613004 -80.62821245877346 68.25552736179374 70.75180205259737 1.5902773407317584e-15 -5.517382872562698e-32 -3.975693351829396e-15
36.56678009033203 18.03034019470215 -380.1979064941406 -1.9474942561875128 17.576161976760638 164.71512292203394 0.11017461215957536 -1.5264424956683154 0.12595896636258835 -1.4114605687248878e-07 -3.641239524144054e-08 -7.052629803659025 -122.36656752039796 -39.08578659929968 -78.9239859530426 5.934342854784926e-07 -4.523813145641756e-06 72.78315767389817 1.5386700619421741e-06 53.55211625953823 82.91273638126212 -4.770832022195275e-15 0.0 0.0 105.90116020772285 -61.12529952898123 80.48672938393472 -1.351567372961711e-07 -7.551993161637101e-07 -102.99256914011823 -7.051808909680393e-06 61.521262906147754 -50.079349151659045 7.951386703658789e-16 3.180554681463516e-15 3.180554681463516e-15 -0.9628779138503775 -4.123271158769123 29.74704791211721 -6.710255766266889 -4.242243136628861 -0.9540657603227478 88.14410577931349 58.71177351991082 -73.15382952832765 -3.0811623476677814e-15 0.0 0.0 -12.5620428700555 5.250926322434344 -25.727295206039173 12.069596760253003 -9.31239027388445 1.4362211931034232 34.97467896691112 5.128686538944184 -4.876758874234922 4.770832022195274e-15 3.1805546814635164e-15 -1.3241718894150476e-31
36.521751403808594 18.01032066345215 -380.31219482421875 -1.2778830062976443 17.256468812279778 163.46510324854597 -0.24243309884270065 -1.6696950288298296 0.11766111337985054 -8.438859776251147e-08 -1.189653342901196e-07 -6.255333867366095 -121.28603705994973 -39.27206297657102 -78.99040355251348 3.2039935009370843e-07 4.9021082932892155e-06 72.84588055226988 -6.859983638342202e-06 53.471445854172735 82.91210097215007 -1.5902773407317584e-15 -8.827812596100317e-32 6.3611093629270335e-15 106.20887158848655 -63.022550832320405 79.15451933935718 -2.081009538512025e-06 2.8208025532715677e-06 -102.67486913833025 6.192645711280581e-06 58.940972854758 -50.427353657856266 2.3854160110976376e-15 0.0 0.0 -0.2737493565686925 -4.2921731069864455 29.62415502900891 -7.212023869461821 -4.108330256556329 -0.9333762351421743 88.10267789036244 59.60912849093315 -73.11163634142852 -4.969616689786744e-16 0.0 0.0 -11.954435076790046 4.979426592412181 -25.103664709062112 12.0469143793078 -9.336713576858763 1.4587862511210827 -80.4300890876407 68.09617954333864 70.30528062712834 -1.5902773407317584e-15 6.3611093629270335e-15 -1.1927080055488188e-15
36.42845916748047 17.877370834350586 -380.45037841796875 -1.3253865042020854 17.3197144413996 162.85304363978136 -0.18161703061934886 -1.6638734994245081 0.1268213086128043 -1.3276545087088307e-07 -1.3916722988937515e-06 -6.1999949402111625 -121.61086669192068 -39.73057554539736 -79.41545829380432 -3.0602346130053355e-06 2.539658991728524e-07 72.92352448706194 1.806150434088985e-06 53.43270989904063 82.91171927022914 -3.1805546814635168e-15 1.7655625192200634e-31 -6.3611093629270335e-15 103.50028155075375 -65.2958184733149 76.88373721881798 -6.799400933173111e-07 1.8483216901462492e-06 -103.12848749248754 8.186513879726616e-06 62.16613616949546 -46.301579635269924 -2.3854160110976376e-15 0.0 0.0 -0.3964359205534847 -4.704737760687986 29.68757855119766 -6.587697730491888 -3.782825925985359 -0.8270671708142773 87.78312970923079 59.71307492375421 -73.29099620054758 1.1927080055488188e-15 0.0 0.0 -12.151776892153599 4.981503054859226 -24.809535390464323 11.980065371996593 -9.205730960201507 1.4344075195865877 -79.91530954826742 68.14778282864263 69.78890415402353 -1.590277340731758e-15 0.0 0.0
36.380680084228516 17.823570251464844 -380.4877014160156 -1.1236461136094953 17.361038670428258 162.11974710973274 -0.08031942251704181 -1.7234724629620564 0.13109650651856164 4.05381860694552e-07 -1.3262607891180502e-06 -6.22984368141443 -121.72719547575636 -40.4041077506508 -79.78457875462301 4.0018370129098346e-07 -2.963552696566267e-07 72.99756506647753 -8.059013899007674e-06 53.42662894287832 82.9120799199292 4.770832022195275e-15 0.0 0.0 96.17080431666209 -69.40245670975892 69.02897222707966 -2.3426148418985603e-06 -4.0927473424727805e-06 -103.9279466181194 4.134259131726661e-06 62.74384342979306 -44.47899054130126 1.5902773407317584e-15 3.1805546814635168e-15 3.1805546814635168e-15 -0.27918527359199136 -4.738771002125264 29.73643975692692 -6.183276708617777 -2.8399498176203295 -0.5990061393150603 85.99014582181812 59.54421316684212 -71.70179926801924 1.5902773407317584e-15 -2.2069531490250793e-32 -1.5902773407317584e-15 -12.16384823531416 4.984296140013165 -24.582500792408297 12.111101695166786 -9.180073673076663 1.4199705849171749 -79.9482577798679 68.211776764126 69.89847933977673 -3.1805546814635168e-15 2.2069531490250793e-32 -7.951386703658792e-16
